<svg width="31" height="31" viewBox="0 0 31 31" fill="none" xmlns="http://www.w3.org/2000/svg">
<path d="M28.4231 18.2439L30.9673 5.65017C31.151 4.74088 30.5367 3.875 29.7078 3.875H8.56849L8.07518 1.16189C7.95226 0.485647 7.42332 0 6.80972 0H1.29167C0.57829 0 0 0.650576 0 1.45313V2.42188C0 3.22442 0.57829 3.875 1.29167 3.875H5.05273L8.83344 24.6689C7.92895 25.2541 7.31945 26.3513 7.31945 27.6094C7.31945 29.482 8.66881 31 10.3333 31C11.9979 31 13.3472 29.482 13.3472 27.6094C13.3472 26.6604 13.0003 25.803 12.4418 25.1875H23.7249C23.1664 25.803 22.8195 26.6604 22.8195 27.6094C22.8195 29.482 24.1688 31 25.8333 31C27.4979 31 28.8472 29.482 28.8472 27.6094C28.8472 26.2669 28.1536 25.1069 27.1477 24.5575L27.4446 23.0877C27.6283 22.1784 27.0139 21.3125 26.1851 21.3125H11.7389L11.3867 19.375H27.1636C27.7667 19.375 28.2895 18.9055 28.4231 18.2439Z" fill="#FF8A34"/>
</svg>
