<svg width="166" height="32" viewBox="0 0 166 32" fill="none" xmlns="http://www.w3.org/2000/svg">
<path d="M53.464 23V10.424H56.68V23H53.464ZM53.464 8.672V5.48H56.68V8.672H53.464ZM71.2692 23H68.0532V15.944C68.0532 14.936 67.8772 14.2 67.5252 13.736C67.1732 13.272 66.6852 13.04 66.0612 13.04C65.6292 13.04 65.1892 13.152 64.7412 13.376C64.3092 13.6 63.9172 13.912 63.5652 14.312C63.2132 14.696 62.9572 15.144 62.7972 15.656V23H59.5812V10.424H62.4852V12.752C62.8052 12.208 63.2132 11.752 63.7092 11.384C64.2052 11 64.7732 10.712 65.4132 10.52C66.0692 10.312 66.7572 10.208 67.4772 10.208C68.2612 10.208 68.9012 10.352 69.3972 10.64C69.9092 10.912 70.2932 11.288 70.5492 11.768C70.8212 12.232 71.0052 12.76 71.1012 13.352C71.2132 13.944 71.2692 14.544 71.2692 15.152V23ZM86.1627 20.096V23H74.3307V5.96H85.9467V8.864H77.6427V12.968H84.8187V15.656H77.6427V20.096H86.1627ZM94.0309 23.24C93.0069 23.24 92.0869 23.072 91.2709 22.736C90.4549 22.384 89.7589 21.904 89.1829 21.296C88.6069 20.672 88.1589 19.968 87.8389 19.184C87.5349 18.4 87.3829 17.576 87.3829 16.712C87.3829 15.528 87.6469 14.448 88.1749 13.472C88.7189 12.48 89.4869 11.688 90.4789 11.096C91.4709 10.504 92.6469 10.208 94.0069 10.208C95.3669 10.208 96.5349 10.504 97.5109 11.096C98.4869 11.688 99.2149 12.464 99.6949 13.424L96.5509 14.384C96.2789 13.92 95.9189 13.568 95.4709 13.328C95.0229 13.072 94.5269 12.944 93.9829 12.944C93.3749 12.944 92.8149 13.104 92.3029 13.424C91.8069 13.728 91.4149 14.168 91.1269 14.744C90.8389 15.304 90.6949 15.96 90.6949 16.712C90.6949 17.448 90.8389 18.104 91.1269 18.68C91.4309 19.24 91.8309 19.688 92.3269 20.024C92.8229 20.344 93.3749 20.504 93.9829 20.504C94.3669 20.504 94.7269 20.44 95.0629 20.312C95.4149 20.184 95.7269 20.008 95.9989 19.784C96.2709 19.56 96.4709 19.304 96.5989 19.016L99.7429 19.976C99.4549 20.6 99.0309 21.16 98.4709 21.656C97.9269 22.152 97.2789 22.544 96.5269 22.832C95.7909 23.104 94.9589 23.24 94.0309 23.24ZM107.413 23.24C106.389 23.24 105.469 23.072 104.653 22.736C103.837 22.384 103.141 21.904 102.565 21.296C102.005 20.688 101.573 19.992 101.269 19.208C100.965 18.424 100.813 17.6 100.813 16.736C100.813 15.856 100.965 15.024 101.269 14.24C101.573 13.456 102.005 12.76 102.565 12.152C103.141 11.544 103.837 11.072 104.653 10.736C105.469 10.384 106.389 10.208 107.413 10.208C108.437 10.208 109.349 10.384 110.149 10.736C110.965 11.072 111.661 11.544 112.237 12.152C112.813 12.76 113.245 13.456 113.533 14.24C113.837 15.024 113.989 15.856 113.989 16.736C113.989 17.6 113.837 18.424 113.533 19.208C113.245 19.992 112.813 20.688 112.237 21.296C111.677 21.904 110.989 22.384 110.173 22.736C109.357 23.072 108.437 23.24 107.413 23.24ZM104.125 16.736C104.125 17.472 104.269 18.128 104.557 18.704C104.845 19.264 105.237 19.704 105.733 20.024C106.229 20.344 106.789 20.504 107.413 20.504C108.021 20.504 108.573 20.344 109.069 20.024C109.565 19.688 109.957 19.24 110.245 18.68C110.549 18.104 110.701 17.448 110.701 16.712C110.701 15.992 110.549 15.344 110.245 14.768C109.957 14.192 109.565 13.744 109.069 13.424C108.573 13.104 108.021 12.944 107.413 12.944C106.789 12.944 106.229 13.112 105.733 13.448C105.237 13.768 104.845 14.216 104.557 14.792C104.269 15.352 104.125 16 104.125 16.736ZM116.135 5.48H119.351V18.968C119.351 19.544 119.447 19.936 119.639 20.144C119.831 20.336 120.095 20.432 120.431 20.432C120.687 20.432 120.951 20.4 121.223 20.336C121.495 20.272 121.735 20.192 121.943 20.096L122.375 22.544C121.943 22.752 121.439 22.912 120.863 23.024C120.287 23.136 119.767 23.192 119.303 23.192C118.295 23.192 117.511 22.928 116.951 22.4C116.407 21.856 116.135 21.088 116.135 20.096V5.48ZM129.585 23.24C128.561 23.24 127.641 23.072 126.825 22.736C126.009 22.384 125.313 21.904 124.737 21.296C124.177 20.688 123.745 19.992 123.441 19.208C123.137 18.424 122.985 17.6 122.985 16.736C122.985 15.856 123.137 15.024 123.441 14.24C123.745 13.456 124.177 12.76 124.737 12.152C125.313 11.544 126.009 11.072 126.825 10.736C127.641 10.384 128.561 10.208 129.585 10.208C130.609 10.208 131.521 10.384 132.321 10.736C133.137 11.072 133.833 11.544 134.409 12.152C134.985 12.76 135.417 13.456 135.705 14.24C136.009 15.024 136.161 15.856 136.161 16.736C136.161 17.6 136.009 18.424 135.705 19.208C135.417 19.992 134.985 20.688 134.409 21.296C133.849 21.904 133.161 22.384 132.345 22.736C131.529 23.072 130.609 23.24 129.585 23.24ZM126.297 16.736C126.297 17.472 126.441 18.128 126.729 18.704C127.017 19.264 127.409 19.704 127.905 20.024C128.401 20.344 128.961 20.504 129.585 20.504C130.193 20.504 130.745 20.344 131.241 20.024C131.737 19.688 132.129 19.24 132.417 18.68C132.721 18.104 132.873 17.448 132.873 16.712C132.873 15.992 132.721 15.344 132.417 14.768C132.129 14.192 131.737 13.744 131.241 13.424C130.745 13.104 130.193 12.944 129.585 12.944C128.961 12.944 128.401 13.112 127.905 13.448C127.409 13.768 127.017 14.216 126.729 14.792C126.441 15.352 126.297 16 126.297 16.736ZM143.251 23.072C142.419 23.072 141.651 22.912 140.947 22.592C140.259 22.256 139.659 21.792 139.147 21.2C138.651 20.608 138.267 19.928 137.995 19.16C137.723 18.392 137.587 17.576 137.587 16.712C137.587 15.8 137.731 14.952 138.019 14.168C138.307 13.384 138.707 12.696 139.219 12.104C139.747 11.496 140.363 11.032 141.067 10.712C141.787 10.376 142.579 10.208 143.443 10.208C144.419 10.208 145.275 10.432 146.011 10.88C146.747 11.312 147.355 11.896 147.835 12.632V10.424H150.643V22.4C150.643 23.648 150.339 24.712 149.731 25.592C149.139 26.488 148.315 27.168 147.259 27.632C146.203 28.112 145.003 28.352 143.659 28.352C142.299 28.352 141.147 28.12 140.203 27.656C139.259 27.208 138.451 26.568 137.779 25.736L139.531 24.032C140.011 24.624 140.611 25.088 141.331 25.424C142.067 25.76 142.843 25.928 143.659 25.928C144.347 25.928 144.971 25.8 145.531 25.544C146.107 25.304 146.563 24.92 146.899 24.392C147.251 23.88 147.427 23.216 147.427 22.4V20.816C147.011 21.536 146.419 22.096 145.651 22.496C144.899 22.88 144.099 23.072 143.251 23.072ZM144.331 20.504C144.683 20.504 145.019 20.448 145.339 20.336C145.659 20.224 145.955 20.072 146.227 19.88C146.499 19.688 146.739 19.464 146.947 19.208C147.155 18.936 147.315 18.664 147.427 18.392V15.392C147.235 14.896 146.963 14.464 146.611 14.096C146.275 13.728 145.891 13.448 145.459 13.256C145.043 13.048 144.603 12.944 144.139 12.944C143.643 12.944 143.195 13.048 142.795 13.256C142.395 13.464 142.051 13.76 141.763 14.144C141.475 14.512 141.251 14.928 141.091 15.392C140.947 15.84 140.875 16.312 140.875 16.808C140.875 17.32 140.963 17.8 141.139 18.248C141.315 18.696 141.555 19.088 141.859 19.424C142.179 19.76 142.547 20.024 142.963 20.216C143.395 20.408 143.851 20.504 144.331 20.504ZM153.806 25.448C154.094 25.512 154.358 25.568 154.598 25.616C154.854 25.664 155.07 25.688 155.246 25.688C155.55 25.688 155.798 25.608 155.99 25.448C156.198 25.304 156.398 25.032 156.59 24.632C156.782 24.248 156.982 23.704 157.19 23L152.222 10.424H155.558L158.942 19.712L161.918 10.424H164.99L159.71 25.496C159.518 26.056 159.222 26.56 158.822 27.008C158.438 27.472 157.95 27.832 157.358 28.088C156.782 28.36 156.134 28.496 155.414 28.496C155.158 28.496 154.902 28.472 154.646 28.424C154.39 28.392 154.11 28.328 153.806 28.232V25.448Z" fill="#7A581E"/>
<g clip-path="url(#clip0_438_64)">
<path d="M27.2636 18.7384C23.8919 20.662 23.1924 23.5801 24.5312 25.9299C25.8701 28.2798 28.739 29.1541 32.1108 27.2305C35.4825 25.307 36.7503 18.9515 36.7503 18.9515C36.7503 18.9515 30.6408 16.8094 27.2636 18.7384Z" fill="#377831"/>
<path d="M8.32255 10.2244C9.36631 13.4431 8.10397 15.7328 5.86891 16.4542C3.63386 17.1755 1.26765 16.0716 0.223894 12.8529C-0.819861 9.63424 2.09281 4.82532 2.09281 4.82532C2.09281 4.82532 7.2788 7.01119 8.32255 10.2244Z" fill="#377831"/>
<path d="M16.8857 8.92383C14.1807 14.5743 16.4595 18.4652 20.6127 20.4543C24.7658 22.4435 29.2305 21.7822 31.9355 16.1318C34.6405 10.4813 30.4054 0 30.4054 0C30.4054 0 19.5908 3.27335 16.8857 8.92383Z" fill="#377831"/>
<path d="M19.4432 23.4927C17.8693 30.1049 13.432 31.8646 8.75971 30.7443C4.08741 29.624 0.923352 26.0556 2.49718 19.4488C4.07101 12.842 14.4703 6.81445 14.4703 6.81445C14.4703 6.81445 21.0225 16.8859 19.4432 23.4927Z" fill="#F0A904"/>
<path d="M25.9732 20.0718C27.2082 26.7551 23.8747 30.1596 19.1423 31.034C14.4099 31.9083 10.0764 29.941 8.84139 23.2468C7.60637 16.5525 14.6613 6.85272 14.6613 6.85272C14.6613 6.85272 24.7327 13.3939 25.9732 20.0718Z" fill="#FFCC03"/>
</g>
<defs>
<clipPath id="clip0_438_64">
<rect width="36.75" height="31.2307" fill="white"/>
</clipPath>
</defs>
</svg>
