<svg width="31" height="27" viewBox="0 0 31 27" fill="none" xmlns="http://www.w3.org/2000/svg">
<g clip-path="url(#clip0_404_21)">
<path d="M22.5544 15.7589C19.765 17.3766 19.1864 19.8308 20.294 21.807C21.4016 23.7832 23.775 24.5185 26.5643 22.9008C29.3536 21.2831 30.4024 15.9382 30.4024 15.9382C30.4024 15.9382 25.3482 14.1366 22.5544 15.7589Z" fill="#377831"/>
<path d="M6.88468 8.59871C7.74815 11.3056 6.70386 13.2312 4.85486 13.8379C3.00585 14.4445 1.04835 13.5162 0.184884 10.8093C-0.678586 8.10236 1.73099 4.05807 1.73099 4.05807C1.73099 4.05807 6.02121 5.89639 6.88468 8.59871Z" fill="#377831"/>
<path d="M13.9693 7.50491C11.7315 12.2569 13.6167 15.5291 17.0525 17.202C20.4883 18.8749 24.1817 18.3188 26.4195 13.5667C28.6573 8.81471 25.1537 0 25.1537 0C25.1537 0 16.2071 2.75287 13.9693 7.50491Z" fill="#377831"/>
<path d="M16.0853 19.7572C14.7833 25.3181 11.1124 26.798 7.24712 25.8558C3.38185 24.9137 0.764316 21.9127 2.0663 16.3564C3.36829 10.8001 11.9713 5.73093 11.9713 5.73093C11.9713 5.73093 17.3918 14.2009 16.0853 19.7572Z" fill="#F0A904"/>
<path d="M21.487 16.8803C22.5087 22.5009 19.7511 25.3641 15.8361 26.0994C11.9211 26.8348 8.33607 25.1803 7.31437 19.5505C6.29268 13.9206 12.129 5.76312 12.129 5.76312C12.129 5.76312 20.4608 11.2643 21.487 16.8803Z" fill="#FFCC03"/>
</g>
<defs>
<clipPath id="clip0_404_21">
<rect width="30.4023" height="26.2649" fill="white"/>
</clipPath>
</defs>
</svg>
