<svg width="31" height="25" viewBox="0 0 31 25" fill="none" xmlns="http://www.w3.org/2000/svg">
<path d="M28.4231 14.7128L30.9673 4.55659C31.151 3.82329 30.5367 3.125 29.7078 3.125H8.56849L8.07518 0.937012C7.95226 0.39165 7.42332 0 6.80972 0H1.29167C0.57829 0 0 0.524658 0 1.17187V1.95312C0 2.60034 0.57829 3.125 1.29167 3.125H5.05273L8.83344 19.8943C7.92895 20.3662 7.31945 21.2511 7.31945 22.2656C7.31945 23.7758 8.66881 25 10.3333 25C11.9979 25 13.3472 23.7758 13.3472 22.2656C13.3472 21.5003 13.0003 20.8088 12.4418 20.3125H23.7249C23.1664 20.8088 22.8195 21.5003 22.8195 22.2656C22.8195 23.7758 24.1688 25 25.8333 25C27.4979 25 28.8472 23.7758 28.8472 22.2656C28.8472 21.183 28.1536 20.2475 27.1477 19.8044L27.4446 18.6191C27.6283 17.8858 27.0139 17.1875 26.1851 17.1875H11.7389L11.3867 15.625H27.1636C27.7667 15.625 28.2895 15.2464 28.4231 14.7128Z" fill="#FF8A34"/>
</svg>
