<svg xmlns="http://www.w3.org/2000/svg" viewBox="0 0 608.4 504.72"><defs><style>.cls-1{fill:#eceaef;}.cls-2{fill:#abdfab;}.cls-15,.cls-19,.cls-3{fill:none;}.cls-3{stroke:#abdfab;stroke-linejoin:round;}.cls-19,.cls-3{stroke-linecap:round;}.cls-4{fill:#033b45;}.cls-5{fill:#efab33;}.cls-6{fill:#38211e;}.cls-7{fill:#9b4c42;}.cls-8{fill:#ff4274;}.cls-9{fill:#435232;}.cls-10{fill:#f9bb91;}.cls-11{fill:#d9a28f;}.cls-12{fill:#393e48;}.cls-13{fill:#fcdc3f;}.cls-14,.cls-17{fill:#efc9b4;}.cls-14,.cls-15,.cls-17{stroke:#1a4566;}.cls-14,.cls-15,.cls-17,.cls-19{stroke-miterlimit:10;}.cls-14{opacity:0.37;}.cls-16{fill:#ef8f7f;}.cls-17{opacity:0.33;}.cls-18{fill:#f7e4da;}.cls-19{stroke:#7cad3d;stroke-width:2px;}.cls-20{fill:#f9ede8;}.cls-21{fill:#2f2a34;}.cls-22{fill:#ed9133;}.cls-23{fill:#dcd549;}.cls-24{fill:#437432;}.cls-25{fill:#314915;}.cls-26{fill:#7cad3d;}.cls-27{fill:#7c9a3d;}</style></defs><title>emptyCard</title><g id="Layer_2" data-name="Layer 2"><ellipse class="cls-1" cx="191.49" cy="465.89" rx="191.49" ry="35.73"/><ellipse class="cls-1" cx="416.91" cy="465.89" rx="191.49" ry="35.73"/><polygon class="cls-2" points="193.98 370.59 288.47 342.23 368.05 363.21 259.76 386.51 193.98 370.59"/><polygon class="cls-3" points="183.69 298.68 259.76 310.44 389.85 262.67 293.36 253.48 183.69 298.68"/><polygon class="cls-3" points="183.69 298.68 193.98 371.08 258.29 385.78 259.76 310.44 183.69 298.68"/><polyline class="cls-3" points="258.29 385.78 369.27 363.47 395.36 261.94 259.76 310.44"/><polyline class="cls-3" points="258.29 347.93 188.53 332.8 291.05 295.38"/><polyline class="cls-3" points="369.27 363.47 288.47 342.23 193.98 371.08"/><polyline class="cls-3" points="288.47 342.23 293.36 253.48 302.94 233.03 401.85 242.09 395.36 261.94"/><line class="cls-3" x1="281.01" y1="302.84" x2="276.45" y2="382.13"/><line class="cls-3" x1="305.09" y1="293.8" x2="300.8" y2="377.23"/><line class="cls-3" x1="326.82" y1="286.45" x2="321.63" y2="373.05"/><line class="cls-3" x1="352.64" y1="277.22" x2="345.43" y2="368.26"/><line class="cls-3" x1="375.58" y1="269.01" x2="358.83" y2="365.57"/><line class="cls-3" x1="201.25" y1="301.4" x2="209.01" y2="374.52"/><line class="cls-3" x1="221.72" y1="304.56" x2="225.42" y2="378.27"/><line class="cls-3" x1="239.1" y1="307.25" x2="239.1" y2="381.39"/><line class="cls-3" x1="272.85" y1="261.94" x2="272.85" y2="347"/><line class="cls-3" x1="250.25" y1="271.25" x2="258.29" y2="351.45"/><line class="cls-3" x1="229.24" y1="279.91" x2="239.1" y2="357.3"/><line class="cls-3" x1="205.13" y1="289.85" x2="217.7" y2="363.47"/><polyline class="cls-3" points="292.22 274.07 391.27 277.85 259.44 326.87 185.67 312.66 292.22 274.07"/><polyline class="cls-3" points="291.05 295.38 383.49 308.12 259.76 347.93"/><polyline class="cls-3" points="289.55 322.74 375.58 338.91 258.29 368.26 191.49 353.59 289.55 322.74"/><polygon class="cls-3" points="362.63 364.37 393.89 411.14 393.89 426.94 267.47 483.9 264.9 476.55 321.63 451.56 329.4 437.96 342.07 430.25 338.69 369.62 362.63 364.37"/><polygon class="cls-3" points="298.08 378.27 300.8 408.2 214.56 453.4 211.41 447.89 242.49 430.98 250.25 415.83 259.76 410.03 259.76 386.51 298.08 378.27"/><polygon class="cls-3" points="384.59 431.13 384.59 437.05 390.22 445.87 403.63 436.31 393.89 426.94 384.59 431.13"/><ellipse class="cls-4" cx="545.2" cy="482.28" rx="9.28" ry="10.6" transform="translate(-214.84 60.59) rotate(-9.1)"/><polygon class="cls-3" points="264.9 476.55 211.41 447.89 214.56 453.4 267.47 483.9 264.9 476.55"/><ellipse class="cls-4" cx="259.76" cy="492.72" rx="10.41" ry="12"/><ellipse class="cls-4" cx="211.41" cy="460.97" rx="8.9" ry="13.08"/><polygon class="cls-3" points="293.36 412.1 302.26 422.28 312.19 414.69 300.8 408.2 293.36 412.1"/><circle class="cls-4" cx="307.16" cy="422.28" r="10.53"/><path class="cls-5" d="M475.64,509.62c-3.83.77-11.49.77-13.92-5.1s3.19-20.94-1.15-29.37c-3.61-7-3.68-9.77-.9-12.41a17.9,17.9,0,0,1,2.05-1.63c4.73-3.32,7.28-15.57,7.28-16.34h5.87l5.62,2s3.32,3.58-.51,8.17c-2.08,2.5-1.7,6.15-1.15,11a63.12,63.12,0,0,1,.38,15,61.22,61.22,0,0,0-.48,8.46c.3,9.76,4.77,6.1,5.33,14,0,.31.1.61.13.88C484.79,510,479.29,508.9,475.64,509.62Z" transform="translate(-145.43 -31.7)"/><path class="cls-6" d="M530.1,420.52c-7.7,2.74-18.15-4.78-24.31-10.71l-.2-.19c-5.21-5.07-13.77-1.68-14.85-4.17s-.63-13.53,9.33-16.08,13.72-1.28,13.72-1.28-.36,9,10.56,16.87c.53.4,1.09.78,1.68,1.16C538.68,414.29,535.6,418.56,530.1,420.52Z" transform="translate(-145.43 -31.7)"/><path class="cls-5" d="M534.66,414.54v0c.14,1.89-2.28,3-5.71,4.21-7.33,2.66-16.42-8.17-22.51-12.12s-13.1-3-14.16-5.54a10.77,10.77,0,0,1-.4-5.11c.51-3.56,2.66-7.76,8.74-9.39,9.79-2.64,13.5-1.32,13.5-1.32a22.39,22.39,0,0,0,1.72,8.4,26.8,26.8,0,0,0,9.8,12.15l.39.28c1.94,1.32,3.52,2.47,4.76,3.49l.37.32C533.52,411.92,534.57,413.38,534.66,414.54Z" transform="translate(-145.43 -31.7)"/><path class="cls-7" d="M525.64,405.84v0c-1.34,1.06-3.2,2.32-4.35,2.21-2-.19-11.18-7-12.32-9.64s3.65-4.34,3.65-4.34l2.46-.3.77-.1A26.8,26.8,0,0,0,525.64,405.84Z" transform="translate(-145.43 -31.7)"/><path class="cls-8" d="M458.54,292.09s42.25-4.91,65.07-2.52a11.07,11.07,0,0,1,9.83,12.36c-2.73,22.44-8.53,76.89-2.9,95.35,0,0-39.83-.51-45.45-13.27,0,0,6.64-49.79,18.38-62.68,0,0-39.83,5.49-51.57-9.32S458.54,292.09,458.54,292.09Z" transform="translate(-145.43 -31.7)"/><path class="cls-8" d="M500.28,454.63a91.17,91.17,0,0,1-2.95-14c-1.81-12.47-2.63-28.36-2.93-43.63q0-2.08-.06-4.14c3.28-25.39,6.64-54.18-5-63.49A316.57,316.57,0,0,1,448,288.91v2.67s-21.61-13.28-25.18,4,5.08,35.69,30.12,50.11a16.88,16.88,0,0,1,7,8.12c3.18,7.17,3.28,17.21,2.38,27.73-2,12.43-12.42,66.59-12.42,66.59,7.55,13.17,51.56,9.64,51.56,9.64C501,456.83,500.64,455.78,500.28,454.63Z" transform="translate(-145.43 -31.7)"/><path class="cls-9" d="M381.46,299.75s-1.88,11.41,3,18.9c2,3,24.52,6.89,38.3-9.45s-2.12-42.13-14.08-39.07-20.65,12-21.16,13.54S381.46,299.75,381.46,299.75Z" transform="translate(-145.43 -31.7)"/><path class="cls-10" d="M478.79,191.75s5.28-10.53,15-8,16-.18,16.34,2.61-14.81.86-15.66,2.16,2.21.79,1.7,4.37-6.64,2.39-8.85,4.52-7.83.07-7.83-1.29A29,29,0,0,0,478.79,191.75Z" transform="translate(-145.43 -31.7)"/><path class="cls-9" d="M414.4,206.81s22.35,12.26,36,7.58c6.11-2.11,26.56-25.9,26.56-25.9s10.21,9.15,12.25,8.89-18.38,33.44-20.42,37-38.81,8.17-46,4.6-12-11.24-12-11.24l-13.6-18.47s.72-3.41,1.58-3.61,4.82-.13,5.65.55,9.73,1.53,10,1.87S414.4,206.81,414.4,206.81Z" transform="translate(-145.43 -31.7)"/><path class="cls-10" d="M420.74,222.64c-6.12,2.05-19.91-2.55-19.91-5.1V198l13.57-1.95,2.18,9.14Z" transform="translate(-145.43 -31.7)"/><path class="cls-11" d="M416.58,205.23c-6.54,5-11.95,6.71-15.75,7.14V198l13.57-1.95Z" transform="translate(-145.43 -31.7)"/><path class="cls-10" d="M427.38,183.32a19.91,19.91,0,0,1-19.91,19.92c-11,0-19.92-12.92-19.92-23.92a18.41,18.41,0,0,1,2.26-9h0c3.31-6.06,10-9.92,17.65-9.92C418.47,160.41,427.38,172.33,427.38,183.32Z" transform="translate(-145.43 -31.7)"/><path class="cls-11" d="M419.52,199.18a19.81,19.81,0,0,1-12,4.06c-11,0-19.92-12.92-19.92-23.92a18.41,18.41,0,0,1,2.26-9h0l1.56-1.81s-7.23,35.32,24.52,31.66C417.22,200,418.55,198.79,419.52,199.18Z" transform="translate(-145.43 -31.7)"/><path class="cls-12" d="M425.31,173.87c-6.16,1.26-9.16.26-13.25-2.8s-.82,18.21-7.64,12.76c-10.38-8.28-14.89-8.67-13.45.94,1.59,10.57,4.57,13.06,4.57,13.06a8.43,8.43,0,0,1-3.35.11c-2.73-.43-6.55-2.25-9.23-8.49a23.92,23.92,0,0,1-1.14-12.81,29.24,29.24,0,0,1,.66-3.11,28.21,28.21,0,0,1,3.72-8.32,21.89,21.89,0,0,1,17.69-10C423.81,154.22,431.47,172.6,425.31,173.87Z" transform="translate(-145.43 -31.7)"/><circle class="cls-13" cx="249.92" cy="160.05" r="1.85"/><path class="cls-4" d="M473.34,87.83c-4.6,46-74,38.3-85.79,50.56-7.93,8.28-4.45,20.06-1.35,26.82a41.89,41.89,0,0,0,2.88,5.35,12.84,12.84,0,0,1-5.1,6.06,3.38,3.38,0,0,1-2.16,0c-7.56-1.59-29.29-15.57-26.44-37.23,1.29-9.79,7.46-16.61,15.55-21.69,10.26-6.45,23.58-10.1,33.88-13.47,9.65-3.15,16.64-6.06,15.93-10.8-1.65-11.16-39.32-2-35.74-38.81a21.59,21.59,0,0,1,8.91-15.35C417.48,21.42,478.71,34.13,473.34,87.83Z" transform="translate(-145.43 -31.7)"/><ellipse class="cls-14" cx="281.45" cy="147.96" rx="4.08" ry="6.67"/><ellipse class="cls-15" cx="281.45" cy="147.96" rx="4.08" ry="6.67"/><path class="cls-16" d="M422.91,179.06c.17.32-.58,2.48,4,7.12,1.18,1.19-1.8,2.87-4.56,2.32s-1.37-10.07,0-10.07C422.79,178.43,422.78,178.81,422.91,179.06Z" transform="translate(-145.43 -31.7)"/><path class="cls-17" d="M421.25,181.82a9,9,0,0,1-.2,1.9h0a7,7,0,0,1-.45,1.51,6.52,6.52,0,0,1-.49,1,4.16,4.16,0,0,1-3.45,2.26c-2.54,0-4.6-3-4.6-6.67a8.94,8.94,0,0,1,.33-2.47,7.24,7.24,0,0,1,.38-1.08,6.33,6.33,0,0,1,.72-1.28,4.46,4.46,0,0,1,1.89-1.57h0a3.12,3.12,0,0,1,1.27-.27c2.24,0,4.11,2.33,4.51,5.42A10.1,10.1,0,0,1,421.25,181.82Z" transform="translate(-145.43 -31.7)"/><path class="cls-18" d="M421.25,181.82a9,9,0,0,1-.2,1.9L413.49,177a4.46,4.46,0,0,1,1.89-1.57h0l5.78,5.15A10.1,10.1,0,0,1,421.25,181.82Z" transform="translate(-145.43 -31.7)"/><path class="cls-19" d="M520.32,185.24c0-.25,6.39-10,2.94-24.7" transform="translate(-145.43 -31.7)"/><path class="cls-20" d="M420.6,185.24a6.52,6.52,0,0,1-.49,1l-7.72-6.88a7.24,7.24,0,0,1,.38-1.08Z" transform="translate(-145.43 -31.7)"/><path class="cls-15" d="M421.25,181.82a9,9,0,0,1-.2,1.9h0a7,7,0,0,1-.45,1.51,6.52,6.52,0,0,1-.49,1,4.16,4.16,0,0,1-3.45,2.26c-2.54,0-4.6-3-4.6-6.67a8.94,8.94,0,0,1,.33-2.47,7.24,7.24,0,0,1,.38-1.08,6.33,6.33,0,0,1,.72-1.28,4.46,4.46,0,0,1,1.89-1.57h0a3.12,3.12,0,0,1,1.27-.27c2.24,0,4.11,2.33,4.51,5.42A10.1,10.1,0,0,1,421.25,181.82Z" transform="translate(-145.43 -31.7)"/><path class="cls-5" d="M528.49,201.88c-.86,2.05-3.86,3.54-7.17,3.76a10,10,0,0,1-9-3.76c-4.26-6-2.21-20.06-2.21-20.06l.68-2.16c.35-1.15,2.78-.36,6.61.24a32.75,32.75,0,0,0,13.13-.33C537.48,177.87,530.19,197.79,528.49,201.88Z" transform="translate(-145.43 -31.7)"/><path class="cls-21" d="M404.85,104.25h0c9.65-3.15,16.64-6.06,15.93-10.8-1.65-11.16-39.32-2-35.74-38.81a21.59,21.59,0,0,1,8.91-15.35c-1.11,6.34.39,15.05,10.51,24.8C425.08,84,434.39,101,404.85,104.25Z" transform="translate(-145.43 -31.7)"/><path class="cls-22" d="M521.32,205.64a10,10,0,0,1-9-3.76c-4.26-6-2.21-20.06-2.21-20.06l.68-2.16c.35-1.15,2.78-.36,6.61.24-.75,6-1.26,16.47,2.92,23.34A6.73,6.73,0,0,1,521.32,205.64Z" transform="translate(-145.43 -31.7)"/><path class="cls-21" d="M384,176.62c2.83,8,5.66,16.36,8.21,21.32-2.73-.43-6.55-2.25-9.23-8.49a23.92,23.92,0,0,1-1.14-12.81c-7.56-1.59-29.29-15.57-26.44-37.23,1.29-9.79,7.46-16.61,15.55-21.69a38.56,38.56,0,0,0-5.34,17.6c-1.65,26.36,11.34,29.37,16.89,38.21A16.08,16.08,0,0,1,384,176.62Z" transform="translate(-145.43 -31.7)"/><path class="cls-23" d="M403.54,217.9s7.73,6.95,13.83,0,7.46,4.92,13.59,10.45,9.16.73,7.15,11.93S456.65,287,473.68,288c0,0-19.74,24.46-42.72,27,0,0-1.79-1.38-3.32-5.72,0,0-.13,5.61.77,6.63,0,0-3.07,3.07-8.81-2.29,0,0-16.21-13.2-18.77-54.41S403.54,217.9,403.54,217.9Z" transform="translate(-145.43 -31.7)"/><path class="cls-10" d="M493.77,205.45c.85-.51.51-4.93,10.89-5.61s15.66-1.24,12.85.83,3.83,5.08,11,0,6.64-4.09,5.62,1.67-14,8.56-22.47,7.28-14,.9-15.57,2.75S493.77,205.45,493.77,205.45Z" transform="translate(-145.43 -31.7)"/><path class="cls-24" d="M400.83,205.54s-6.67,2.28,2.71,4.66,9.69,3.74,8.85,7.49,13.46,15,38.32,9.89,31-16.7,43.91-26.91c0,0,4.77,11.5,6.81,12.73,0,0-26.16,45.82-80.83,37,0,0,3.25,35.38-38.14,64,0,0-10.9-41.66,2.2-87.64,2.06-7.2,4.9-4.26,8.83-8.68s2.11-9.36,3.7-11.24A3.6,3.6,0,0,1,400.83,205.54Z" transform="translate(-145.43 -31.7)"/><path class="cls-25" d="M516.88,155" transform="translate(-145.43 -31.7)"/><path class="cls-26" d="M529.41,162.76c-3.1,2-5.18.65-6.7-1.7s-1.92-4.81,1.19-6.82,10.06-.47,10.06-.47S532.52,160.74,529.41,162.76Z" transform="translate(-145.43 -31.7)"/><path class="cls-26" d="M524.35,161.9a9.08,9.08,0,0,1-.36,1c-.93,2.14-2.57,3.44-5.65,2.46-3.4-1.07-6.53-7-6.75-7.43h0v0s6.3-3.33,9.83-2.21S525.19,159.23,524.35,161.9Z" transform="translate(-145.43 -31.7)"/><path class="cls-27" d="M524,162.86c-.93,2.14-2.57,3.44-5.65,2.46-3.4-1.07-6.53-7-6.75-7.43,2.44,2.69,6.55,6.16,10.71,5.26C522.91,163,523.47,162.92,524,162.86Z" transform="translate(-145.43 -31.7)"/><path class="cls-6" d="M475.64,509.62c-3.83.77-11.49.77-13.92-5.1s3.19-20.94-1.15-29.37c-3.61-7-3.68-9.77-.9-12.41a26,26,0,0,1,4.61,11.78c1.78,12.12-.52,24.25.89,27.57s4.59,6.26,12.13,4.21c3.22-.87,5.39-1.61,6.89-1.93C484.79,510,479.29,508.9,475.64,509.62Z" transform="translate(-145.43 -31.7)"/><path class="cls-7" d="M479.21,481a61.22,61.22,0,0,0-.48,8.46c-2.81,1.12-5.65,1.53-5.65-1.06,0-5.11-2.11-21.32-2.11-21.32a18.05,18.05,0,0,1,7.86-1.09A63.12,63.12,0,0,1,479.21,481Z" transform="translate(-145.43 -31.7)"/></g></svg>